<?xml version="1.0"?>
<svg xmlns="http://www.w3.org/2000/svg" xmlns:xlink="http://www.w3.org/1999/xlink" xmlns:svgjs="http://svgjs.com/svgjs" version="1.1" width="512" height="512" x="0" y="0" viewBox="0 0 64 64" style="enable-background:new 0 0 512 512" xml:space="preserve"><g><path xmlns="http://www.w3.org/2000/svg" d="m35 33.75-6 1.5v-29.25a3 3 0 0 1 3-3 3 3 0 0 1 3 3z" fill="#dd3e46" data-original="#dd3e46" style=""/><path xmlns="http://www.w3.org/2000/svg" d="m38 45h-12v-9l12-3z" fill="#cfdfe8" data-original="#cfdfe8" style=""/><path xmlns="http://www.w3.org/2000/svg" d="m38 37h4v4h-4z" fill="#f9bb4b" data-original="#f9bb4b" style=""/><circle xmlns="http://www.w3.org/2000/svg" cx="32" cy="39" fill="#aabece" r="2" data-original="#aabece" style=""/><g xmlns="http://www.w3.org/2000/svg" fill="#eb8cb3"><path d="m18 17h8v2h-8z" fill="#eb8cb3" data-original="#eb8cb3" style=""/><path d="m21.5 7.692h2v7.616h-2z" transform="matrix(.394 -.919 .919 .394 3.067 27.651)" fill="#eb8cb3" data-original="#eb8cb3" style=""/><path d="m18.692 23.5h7.616v2h-7.616z" transform="matrix(.919 -.394 .394 .919 -7.834 10.85)" fill="#eb8cb3" data-original="#eb8cb3" style=""/><path d="m38 17h8v2h-8z" fill="#eb8cb3" data-original="#eb8cb3" style=""/><path d="m37.692 10.5h7.616v2h-7.616z" transform="matrix(.919 -.394 .394 .919 -1.173 17.286)" fill="#eb8cb3" data-original="#eb8cb3" style=""/><path d="m40.5 20.692h2v7.616h-2z" transform="matrix(.394 -.919 .919 .394 2.633 52.993)" fill="#eb8cb3" data-original="#eb8cb3" style=""/></g><path xmlns="http://www.w3.org/2000/svg" d="m28 49h8a0 0 0 0 1 0 0v10a2 2 0 0 1 -2 2h-4a2 2 0 0 1 -2-2v-10a0 0 0 0 1 0 0z" fill="#98a1a1" data-original="#98a1a1" style=""/><path xmlns="http://www.w3.org/2000/svg" d="m24 45h16v4h-16z" fill="#5a6470" data-original="#5a6470" style=""/><path xmlns="http://www.w3.org/2000/svg" d="m29 45h6v4h-6z" fill="#394d5c" data-original="#394d5c" style=""/><path xmlns="http://www.w3.org/2000/svg" d="m28 52h3v2h-3z" fill="#394d5c" data-original="#394d5c" style=""/><path xmlns="http://www.w3.org/2000/svg" d="m28 56h5v2h-5z" fill="#394d5c" data-original="#394d5c" style=""/></g></svg>
